<svg width="80" height="80" viewBox="0 0 80 80" fill="none" xmlns="http://www.w3.org/2000/svg">
<g clip-path="url(#clip0_2387_145396)">
<path d="M5.42383 59.5586V72.5265C5.42383 73.3154 6.06482 73.9728 6.87018 73.9728H16.896C17.6849 73.9728 18.3424 73.3318 18.3424 72.5265V49.7136L11.0613 56.9946C9.51635 58.5232 7.54405 59.4107 5.42383 59.5586ZM23.3389 49.5492V72.5265C23.3389 73.3154 23.9799 73.9728 24.7852 73.9728H34.8111C35.6 73.9728 36.2574 73.3318 36.2574 72.5265V58.9998C33.9728 58.9505 31.8362 58.0465 30.2255 56.4358L23.3389 49.5492ZM41.2539 57.5699V72.5265C41.2539 73.3154 41.8949 73.9728 42.7002 73.9728H52.7261C53.515 73.9728 54.1724 73.3318 54.1724 72.5265V44.9307L42.6838 56.4194C42.24 56.8631 41.7634 57.2412 41.2539 57.5699ZM71.1178 27.969L59.1689 39.9178V72.5265C59.1689 73.3154 59.8099 73.9728 60.6153 73.9728H70.6411C71.43 73.9728 72.0875 73.3318 72.0875 72.5265V28.873C71.7588 28.5936 71.5122 28.347 71.3314 28.1827L71.1178 27.969Z" fill="#C70013"/>
<path d="M79.3192 6.7997C78.8426 6.29019 78.1194 6.02722 77.199 6.02722H76.936C72.2683 6.24089 67.6169 6.47099 62.9492 6.68465C62.3246 6.71753 61.4699 6.7504 60.7961 7.42427C60.5824 7.63793 60.418 7.88447 60.2866 8.18031C59.5962 9.67597 60.566 10.6457 61.0262 11.1059L62.1931 12.2893C62.9985 13.1111 63.8203 13.9328 64.642 14.7382L36.4382 42.9585L23.7662 30.2865C23.0101 29.5304 21.9911 29.1031 20.9064 29.1031C19.8216 29.1031 18.819 29.5304 18.063 30.2865L1.18338 47.1496C-0.394459 48.7275 -0.394459 51.275 1.18338 52.8529L1.93943 53.6089C2.69547 54.3649 3.71449 54.7923 4.79926 54.7923C5.88402 54.7923 6.8866 54.3649 7.64265 53.6089L20.9064 40.3452L33.5784 53.0172C34.3344 53.7733 35.3534 54.2006 36.4382 54.2006C37.523 54.2006 38.5255 53.7733 39.298 53.0172L71.1178 21.1975L74.7172 24.7805C75.1445 25.2078 75.7362 25.7995 76.6402 25.7995C77.0182 25.7995 77.3962 25.7009 77.7907 25.4872C78.0537 25.3393 78.2838 25.1749 78.481 24.9777C79.1877 24.271 79.3192 23.367 79.3521 22.6603C79.4836 19.6361 79.6315 16.6119 79.7794 13.5713L79.9931 9.01854C80.0424 8.06526 79.8287 7.32565 79.3192 6.7997Z" fill="#C70013"/>
</g>
<defs>
<clipPath id="clip0_2387_145396">
<rect width="80" height="80" fill="white"/>
</clipPath>
</defs>
</svg>
